<?xml version="1.0" standalone="no"?>
<!DOCTYPE svg PUBLIC "-//W3C//DTD SVG 20010904//EN"
 "http://www.w3.org/TR/2001/REC-SVG-20010904/DTD/svg10.dtd">
<svg version="1.0" xmlns="http://www.w3.org/2000/svg"
 width="500.000000pt" height="500.000000pt" viewBox="0 0 500.000000 500.000000"
 preserveAspectRatio="xMidYMid meet">

<g transform="translate(0.000000,500.000000) scale(0.100000,-0.100000)"
fill="#9333ea" stroke="none">
<path d="M2300 3749 c-58 -16 -190 -52 -295 -78 -104 -27 -244 -65 -310 -84
-194 -56 -170 -57 -282 16 -118 77 -143 91 -151 82 -10 -10 -13 -908 -4 -923
5 -7 37 -20 71 -28 34 -8 136 -36 226 -64 89 -27 239 -69 331 -93 93 -25 214
-59 269 -76 55 -18 174 -52 265 -75 91 -24 194 -53 230 -64 173 -54 242 -74
322 -92 100 -22 128 -34 128 -56 0 -9 -18 -54 -40 -101 -68 -146 -169 -271
-270 -335 -152 -98 -227 -138 -305 -163 -100 -33 -143 -29 -227 18 -86 48
-272 200 -318 259 -22 29 -58 76 -80 103 -56 70 -156 277 -180 370 -11 43 -20
104 -20 136 0 63 1 62 -75 75 -22 3 -100 21 -174 40 -74 19 -138 34 -143 34
-22 0 0 -195 43 -385 53 -232 115 -359 265 -540 197 -240 357 -351 632 -440
116 -39 181 -47 259 -35 320 51 541 173 771 425 113 123 252 363 305 525 31
94 66 265 56 274 -5 6 -305 92 -349 101 -29 6 -152 41 -537 151 l-53 15 0 258
c0 214 2 261 15 271 8 6 18 10 22 7 7 -4 192 -42 402 -83 41 -8 81 -19 88 -26
12 -10 14 -53 11 -239 -1 -125 0 -231 4 -234 12 -12 383 -115 396 -110 9 3 12
102 12 447 0 244 -3 487 -7 540 -7 111 -3 109 -104 45 -30 -19 -73 -44 -95
-55 l-41 -21 -189 50 c-104 28 -225 59 -269 71 -44 11 -161 42 -260 69 -99 27
-193 49 -210 48 -16 0 -77 -14 -135 -30z m-32 -678 c1 -113 -1 -208 -6 -213
-12 -12 -482 111 -544 144 -27 13 -26 173 0 187 9 5 85 19 167 31 83 12 195
30 250 40 55 9 107 17 115 16 13 -1 15 -33 18 -205z"/>
<path d="M2227 2384 c-4 -4 -7 -141 -7 -305 l0 -297 88 -38 c114 -49 146 -49
247 1 l80 40 3 241 2 241 -27 11 c-16 6 -102 32 -193 58 -91 26 -170 48 -176
51 -5 2 -13 0 -17 -3z"/>
</g>
</svg>
