<?xml version="1.0" encoding="UTF-8"?>
<svg version="1.1" xmlns="http://www.w3.org/2000/svg" fill="#ffffff" width="512" height="512">
<path d="M0 0 C9.03628898 5.88226141 16.71395011 13.72862391 19.23828125 24.45703125 C21.06978982 35.41086135 20.10192302 44.77038764 13.93359375 54.171875 C8.29529928 61.77188022 1.52809277 67.13457837 -7.76171875 69.45703125 C-8.09171875 84.63703125 -8.42171875 99.81703125 -8.76171875 115.45703125 C-6.12171875 115.45703125 -3.48171875 115.45703125 -0.76171875 115.45703125 C25.50508289 118.11129143 51.20939283 129.39132085 71.23828125 146.45703125 C72.55699219 147.56691406 72.55699219 147.56691406 73.90234375 148.69921875 C84.32963359 157.77063809 92.67690541 167.96885395 100.23828125 179.45703125 C101.33527344 178.90273437 102.43226563 178.3484375 103.5625 177.77734375 C105.01687312 177.04546567 106.47130321 176.3137008 107.92578125 175.58203125 C108.64701172 175.21722656 109.36824219 174.85242188 110.11132812 174.4765625 C111.1699707 173.94482422 111.1699707 173.94482422 112.25 173.40234375 C112.89412842 173.07766113 113.53825684 172.75297852 114.2019043 172.41845703 C116.50305454 171.33202499 118.87556309 170.40211851 121.23828125 169.45703125 C121.23828125 154.27703125 121.23828125 139.09703125 121.23828125 123.45703125 C118.26828125 122.46703125 115.29828125 121.47703125 112.23828125 120.45703125 C102.75612046 115.12618803 96.85160987 106.81622146 93.6484375 96.5703125 C91.48026951 85.39908504 93.5168761 75.13988531 99.73828125 65.76953125 C105.59481755 58.15495551 112.90917612 53.62541785 122.23828125 51.45703125 C133.87871996 50.36415163 143.46966938 51.78949281 153.05078125 58.64453125 C161.19282927 65.49026035 165.49241913 74.06286724 166.5546875 84.59375 C166.96779826 95.85434981 163.86412621 105.11626332 156.23828125 113.45703125 C151.60739027 118.25490148 146.5437339 121.27388064 140.23828125 123.45703125 C139.57828125 123.45703125 138.91828125 123.45703125 138.23828125 123.45703125 C138.2471637 124.12244431 138.25604614 124.78785736 138.26519775 125.47343445 C138.35370315 132.40008961 138.41402916 139.32658409 138.45800781 146.25366211 C138.47812097 148.83868942 138.50541511 151.42367125 138.54003906 154.00854492 C138.58856779 157.7245608 138.6112536 161.43997503 138.62890625 165.15625 C138.64955139 166.31162766 138.67019653 167.46700531 138.69146729 168.65739441 C138.69369531 176.62739078 138.69369531 176.62739078 136.54833984 180.53564453 C134.08387852 182.58545542 131.75597633 184.06885151 128.88671875 185.5 C127.8709375 186.01626953 126.85515625 186.53253906 125.80859375 187.06445312 C124.22691406 187.8465918 124.22691406 187.8465918 122.61328125 188.64453125 C120.51532264 189.69732965 118.41888835 190.75317282 116.32421875 191.8125 C115.39657715 192.27293701 114.46893555 192.73337402 113.51318359 193.20776367 C111.13094639 194.3780758 111.13094639 194.3780758 109.23828125 196.45703125 C109.625 197.41480469 110.01171875 198.37257812 110.41015625 199.359375 C116.17232902 213.96589916 120.23828125 228.64776847 120.23828125 244.45703125 C143.00828125 243.96203125 143.00828125 243.96203125 166.23828125 243.45703125 C167.55828125 240.15703125 168.87828125 236.85703125 170.23828125 233.45703125 C175.6939502 224.82946174 183.24628996 219.00180806 193.23828125 216.45703125 C204.26893496 214.24352214 214.81229317 216.30352076 224.23828125 222.45703125 C231.35235728 228.06092622 235.39755826 234.93486229 238.23828125 243.45703125 C239.04315472 256.55931572 238.79105562 266.38560225 229.98828125 276.76953125 C222.256416 284.85688456 214.33980392 288.61174913 203.16796875 289.4140625 C192.46660409 289.57101585 184.30256979 285.97085364 176.36328125 278.89453125 C175.66203125 278.09015625 174.96078125 277.28578125 174.23828125 276.45703125 C173.55765625 275.73515625 172.87703125 275.01328125 172.17578125 274.26953125 C170.23828125 271.45703125 170.23828125 271.45703125 166.23828125 261.45703125 C151.05828125 261.12703125 135.87828125 260.79703125 120.23828125 260.45703125 C120.23828125 263.09703125 120.23828125 265.73703125 120.23828125 268.45703125 C119.88335339 271.8059062 119.25078356 275.08848601 118.61328125 278.39453125 C118.44086914 279.30315918 118.26845703 280.21178711 118.09082031 281.14794922 C116.55352136 288.77982592 114.2065395 295.93187963 111.41015625 303.18359375 C110.06975724 306.34829523 110.06975724 306.34829523 110.23828125 309.45703125 C110.87854248 309.79959961 111.51880371 310.14216797 112.1784668 310.49511719 C115.09708127 312.06051983 118.01143957 313.63368923 120.92578125 315.20703125 C121.93318359 315.74585938 122.94058594 316.2846875 123.97851562 316.83984375 C124.95498047 317.36835938 125.93144531 317.896875 126.9375 318.44140625 C127.83299561 318.92319336 128.72849121 319.40498047 129.65112305 319.90136719 C136.52798574 324.03644024 136.52798574 324.03644024 138.23828125 327.45703125 C138.32889981 329.18309578 138.35582626 330.91267632 138.35180664 332.64111328 C138.35173111 333.72208282 138.35165558 334.80305237 138.35157776 335.91677856 C138.34641647 337.08764008 138.34125519 338.25850159 138.3359375 339.46484375 C138.33381508 341.25847855 138.33381508 341.25847855 138.33164978 343.08834839 C138.32603788 346.91960112 138.31348333 350.75079609 138.30078125 354.58203125 C138.29576778 357.17447832 138.29120461 359.76692631 138.28710938 362.359375 C138.27606458 368.72528023 138.25931484 375.09115162 138.23828125 381.45703125 C138.85991653 381.65782288 139.48155182 381.8586145 140.12202454 382.06549072 C140.93551865 382.33166199 141.74901276 382.59783325 142.5871582 382.87207031 C143.39441849 383.13473694 144.20167877 383.39740356 145.03340149 383.66802979 C152.41297009 386.30875902 158.83371492 392.92446213 162.4609375 399.76171875 C167.00121627 409.68849313 168.07708431 420.4993281 164.39453125 430.984375 C159.98637477 440.4112772 153.63609541 446.97379028 144.23828125 451.45703125 C134.32314333 454.85356639 123.43640708 454.90034698 113.734375 450.77734375 C104.3121712 445.79345504 97.90178165 438.81469211 94.36328125 428.70703125 C91.73547597 418.55772342 92.51307077 408.8196774 97.23828125 399.45703125 C102.5050713 390.71446333 109.58523395 384.79922685 119.23828125 381.45703125 C119.89828125 381.45703125 120.55828125 381.45703125 121.23828125 381.45703125 C121.23828125 366.27703125 121.23828125 351.09703125 121.23828125 335.45703125 C119.58828125 334.79703125 117.93828125 334.13703125 116.23828125 333.45703125 C114.90072335 332.82553586 113.57082609 332.177501 112.25 331.51171875 C111.54423828 331.15722656 110.83847656 330.80273438 110.11132812 330.4375 C109.39009766 330.07269531 108.66886719 329.70789063 107.92578125 329.33203125 C107.18521484 328.95949219 106.44464844 328.58695312 105.68164062 328.203125 C103.86626908 327.28958319 102.05214843 326.37355638 100.23828125 325.45703125 C99.36429687 326.74673828 99.36429687 326.74673828 98.47265625 328.0625 C77.2576331 358.86360319 46.5297543 380.71237422 9.46533203 387.86181641 C3.25580978 388.99861778 -2.35219749 389.45703125 -8.76171875 389.45703125 C-8.43171875 404.63703125 -8.10171875 419.81703125 -7.76171875 435.45703125 C-4.46171875 436.77703125 -1.16171875 438.09703125 2.23828125 439.45703125 C10.81939864 444.88332607 16.77924925 452.4762543 19.23828125 462.45703125 C21.28252366 473.76850592 19.48241732 483.74922682 13.23828125 493.45703125 C7.64208345 500.5737995 0.75623993 504.61771169 -7.76171875 507.45703125 C-20.86400322 508.26190472 -30.69028975 508.00980562 -41.07421875 499.20703125 C-49.16511801 491.47177592 -52.904092 483.56251116 -53.72265625 472.390625 C-53.85530113 462.42899473 -50.93036285 454.1601169 -44.32421875 446.70703125 C-43.47859375 445.96453125 -42.63296875 445.22203125 -41.76171875 444.45703125 C-40.87484375 443.61140625 -39.98796875 442.76578125 -39.07421875 441.89453125 C-35.76171875 439.45703125 -35.76171875 439.45703125 -25.76171875 435.45703125 C-25.43171875 420.27703125 -25.10171875 405.09703125 -24.76171875 389.45703125 C-27.40171875 389.45703125 -30.04171875 389.45703125 -32.76171875 389.45703125 C-59.02852039 386.80277107 -84.73283033 375.52274165 -104.76171875 358.45703125 C-105.64085937 357.71710938 -106.52 356.9771875 -107.42578125 356.21484375 C-117.85307109 347.14342441 -126.20034291 336.94520855 -133.76171875 325.45703125 C-134.85871094 326.01132812 -135.95570313 326.565625 -137.0859375 327.13671875 C-138.54031062 327.86859683 -139.99474071 328.6003617 -141.44921875 329.33203125 C-142.17044922 329.69683594 -142.89167969 330.06164062 -143.63476562 330.4375 C-144.34052734 330.79199219 -145.04628906 331.14648438 -145.7734375 331.51171875 C-146.41756592 331.83640137 -147.06169434 332.16108398 -147.7253418 332.49560547 C-150.02649204 333.58203751 -152.39900059 334.51194399 -154.76171875 335.45703125 C-154.76171875 350.63703125 -154.76171875 365.81703125 -154.76171875 381.45703125 C-150.30671875 382.94203125 -150.30671875 382.94203125 -145.76171875 384.45703125 C-136.27955796 389.78787447 -130.37504737 398.09784104 -127.171875 408.34375 C-125.00370701 419.51497746 -127.0403136 429.77417719 -133.26171875 439.14453125 C-139.11825505 446.75910699 -146.43261362 451.28864465 -155.76171875 453.45703125 C-167.40215746 454.54991087 -176.99310688 453.12456969 -186.57421875 446.26953125 C-194.71626677 439.42380215 -199.01585663 430.85119526 -200.078125 420.3203125 C-200.49123576 409.05971269 -197.38756371 399.79779918 -189.76171875 391.45703125 C-185.13082777 386.65916102 -180.0671714 383.64018186 -173.76171875 381.45703125 C-173.10171875 381.45703125 -172.44171875 381.45703125 -171.76171875 381.45703125 C-171.77504242 380.45891167 -171.77504242 380.45891167 -171.78863525 379.44062805 C-171.87714065 372.51397289 -171.93746666 365.58747841 -171.98144531 358.66040039 C-172.00155847 356.07537308 -172.02885261 353.49039125 -172.06347656 350.90551758 C-172.11200529 347.1895017 -172.1346911 343.47408747 -172.15234375 339.7578125 C-172.17298889 338.60243484 -172.19363403 337.44705719 -172.21490479 336.25666809 C-172.21713281 328.28667172 -172.21713281 328.28667172 -170.07177734 324.37841797 C-167.60731602 322.32860708 -165.27941383 320.84521099 -162.41015625 319.4140625 C-161.394375 318.89779297 -160.37859375 318.38152344 -159.33203125 317.84960938 C-158.27757812 317.32818359 -157.223125 316.80675781 -156.13671875 316.26953125 C-154.03876014 315.21673285 -151.94232585 314.16088968 -149.84765625 313.1015625 C-148.45619385 312.41090698 -148.45619385 312.41090698 -147.03662109 311.70629883 C-144.65438389 310.5359867 -144.65438389 310.5359867 -142.76171875 308.45703125 C-143.34179688 307.02037109 -143.34179688 307.02037109 -143.93359375 305.5546875 C-149.69576652 290.94816334 -153.76171875 276.26629403 -153.76171875 260.45703125 C-168.94171875 260.78703125 -184.12171875 261.11703125 -199.76171875 261.45703125 C-201.08171875 264.75703125 -202.40171875 268.05703125 -203.76171875 271.45703125 C-209.96199031 280.37283528 -218.18379593 286.87808617 -228.96875 288.86328125 C-239.3616233 290.30355346 -248.96027897 288.20282167 -257.76171875 282.45703125 C-264.87579478 276.85313628 -268.92099576 269.97920021 -271.76171875 261.45703125 C-272.56659222 248.35474678 -272.31449312 238.52846025 -263.51171875 228.14453125 C-255.77646342 220.05363199 -247.86719866 216.314658 -236.6953125 215.49609375 C-226.73368223 215.36344887 -218.4648044 218.28838715 -211.01171875 224.89453125 C-210.26921875 225.74015625 -209.52671875 226.58578125 -208.76171875 227.45703125 C-207.49328125 228.78734375 -207.49328125 228.78734375 -206.19921875 230.14453125 C-203.76171875 233.45703125 -203.76171875 233.45703125 -199.76171875 243.45703125 C-176.99171875 243.95203125 -176.99171875 243.95203125 -153.76171875 244.45703125 C-153.76171875 241.81703125 -153.76171875 239.17703125 -153.76171875 236.45703125 C-153.40679089 233.1081563 -152.77422106 229.82557649 -152.13671875 226.51953125 C-151.87810059 225.15658936 -151.87810059 225.15658936 -151.61425781 223.76611328 C-150.07695886 216.13423658 -147.729977 208.98218287 -144.93359375 201.73046875 C-143.59319474 198.56576727 -143.59319474 198.56576727 -143.76171875 195.45703125 C-144.40197998 195.11446289 -145.04224121 194.77189453 -145.7019043 194.41894531 C-148.62051877 192.85354267 -151.53487707 191.28037327 -154.44921875 189.70703125 C-155.45662109 189.16820312 -156.46402344 188.629375 -157.50195312 188.07421875 C-158.47841797 187.54570312 -159.45488281 187.0171875 -160.4609375 186.47265625 C-161.80418091 185.74997559 -161.80418091 185.74997559 -163.17456055 185.01269531 C-170.05142324 180.87762226 -170.05142324 180.87762226 -171.76171875 177.45703125 C-171.85233731 175.73096672 -171.87926376 174.00138618 -171.87524414 172.27294922 C-171.87513084 170.6514949 -171.87513084 170.6514949 -171.87501526 168.99728394 C-171.86985397 167.82642242 -171.86469269 166.65556091 -171.859375 165.44921875 C-171.85796005 164.25346222 -171.8565451 163.05770569 -171.85508728 161.82571411 C-171.84947538 157.99446138 -171.83692083 154.16326641 -171.82421875 150.33203125 C-171.81920528 147.73958418 -171.81464211 145.14713619 -171.81054688 142.5546875 C-171.79950208 136.18878227 -171.78275234 129.82291088 -171.76171875 123.45703125 C-172.38335403 123.25623962 -173.00498932 123.055448 -173.64546204 122.84857178 C-174.45895615 122.58240051 -175.27245026 122.31622925 -176.1105957 122.04199219 C-176.91785599 121.77932556 -177.72511627 121.51665894 -178.55683899 121.24603271 C-185.93640759 118.60530348 -192.35715242 111.98960037 -195.984375 105.15234375 C-200.52465377 95.22556937 -201.60052181 84.4147344 -197.91796875 73.9296875 C-193.50981227 64.5027853 -187.15953291 57.94027222 -177.76171875 53.45703125 C-167.84658083 50.06049611 -156.95984458 50.01371552 -147.2578125 54.13671875 C-137.8356087 59.12060746 -131.42521915 66.09937039 -127.88671875 76.20703125 C-125.25891347 86.35633908 -126.03650827 96.0943851 -130.76171875 105.45703125 C-136.0285088 114.19959917 -143.10867145 120.11483565 -152.76171875 123.45703125 C-153.42171875 123.45703125 -154.08171875 123.45703125 -154.76171875 123.45703125 C-154.76171875 138.63703125 -154.76171875 153.81703125 -154.76171875 169.45703125 C-153.11171875 170.11703125 -151.46171875 170.77703125 -149.76171875 171.45703125 C-148.42416085 172.08852664 -147.09426359 172.7365615 -145.7734375 173.40234375 C-144.71479492 173.93408203 -144.71479492 173.93408203 -143.63476562 174.4765625 C-142.91353516 174.84136719 -142.19230469 175.20617187 -141.44921875 175.58203125 C-140.70865234 175.95457031 -139.96808594 176.32710937 -139.20507812 176.7109375 C-137.38970658 177.62447931 -135.57558593 178.54050612 -133.76171875 179.45703125 C-133.16746094 178.585625 -132.57320312 177.71421875 -131.9609375 176.81640625 C-110.58358653 145.91617896 -79.82918326 124.18089841 -42.63720703 116.91381836 C-36.49671179 115.8072685 -31.069388 115.45703125 -24.76171875 115.45703125 C-25.09171875 100.27703125 -25.42171875 85.09703125 -25.76171875 69.45703125 C-29.06171875 68.13703125 -32.36171875 66.81703125 -35.76171875 65.45703125 C-44.13481139 59.84077616 -49.94754539 52.11159629 -52.76171875 42.45703125 C-54.96944059 31.24244422 -52.94394531 21.0685845 -46.76171875 11.45703125 C-36.19708517 -1.97817092 -15.79429177 -7.71983518 0 0 Z M-32.32421875 21.2890625 C-35.38048498 25.69112778 -37.24564561 30.04495125 -36.76171875 35.45703125 C-35.27577447 41.71159412 -32.79107491 46.44708397 -27.61328125 50.3359375 C-22.78676988 53.25831886 -18.20218574 53.91098798 -12.7421875 52.9921875 C-7.47857582 51.56987034 -3.09159984 48.65769668 0.2265625 44.28125 C2.69531914 39.82986255 3.64314214 35.05732335 2.859375 30.0234375 C1.00358046 23.73494513 -2.00074136 19.47725861 -7.32421875 15.58203125 C-16.81952503 12.47447647 -25.70342598 13.52618298 -32.32421875 21.2890625 Z M-179.13671875 75.95703125 C-182.65136559 81.36418023 -183.6146496 86.07071148 -182.76171875 92.45703125 C-180.90392338 98.35764269 -177.82516359 102.01388876 -172.76171875 105.45703125 C-166.73836338 108.14831769 -161.34882834 108.28893019 -155.19921875 105.95703125 C-150.2799162 103.61090234 -147.44744205 100.12827142 -144.76171875 95.45703125 C-142.92019502 89.93246007 -142.94473325 84.54697464 -145.38671875 79.20703125 C-148.2333653 74.13959661 -152.3864671 70.70325867 -157.76171875 68.45703125 C-166.92397341 67.10545642 -172.84916738 69.33855613 -179.13671875 75.95703125 Z M113.86328125 75.95703125 C110.34863441 81.36418023 109.3853504 86.07071148 110.23828125 92.45703125 C112.09607662 98.35764269 115.17483641 102.01388876 120.23828125 105.45703125 C126.26163662 108.14831769 131.65117166 108.28893019 137.80078125 105.95703125 C142.7200838 103.61090234 145.55255795 100.12827142 148.23828125 95.45703125 C150.07980498 89.93246007 150.05526675 84.54697464 147.61328125 79.20703125 C144.7666347 74.13959661 140.6135329 70.70325867 135.23828125 68.45703125 C126.07602659 67.10545642 120.15083262 69.33855613 113.86328125 75.95703125 Z M-50.76171875 136.45703125 C-51.79159912 136.77051514 -51.79159912 136.77051514 -52.84228516 137.09033203 C-83.80377325 146.86880059 -108.91244295 168.98798848 -124.03833008 197.4375 C-138.9023519 226.41586166 -141.18964745 259.65211516 -131.4765625 290.67578125 C-121.11588596 321.51755257 -98.43745095 346.06073873 -69.76171875 360.76953125 C-40.66041997 375.04929089 -7.19074812 376.79324355 23.49389648 366.48779297 C54.05972332 355.47975495 79.51505988 331.77641893 93.34326172 302.48583984 C106.15800936 273.4376803 107.30506164 240.07475047 96.55078125 210.20703125 C87.59736203 187.11861492 70.78672013 164.15860373 49.23828125 151.45703125 C48.3889502 150.93834473 48.3889502 150.93834473 47.52246094 150.40917969 C37.85447099 144.52627539 28.07676281 139.75614193 17.23828125 136.45703125 C16.55556152 136.24675293 15.8728418 136.03647461 15.16943359 135.81982422 C-5.68984739 129.71431509 -30.01667471 130.0675381 -50.76171875 136.45703125 Z M-249.4375 237.921875 C-254.30204912 243.56130805 -255.28397661 248.11372506 -255.1328125 255.4140625 C-254.45724539 260.95371284 -252.12698983 264.43974249 -247.9296875 268.01953125 C-243.28798342 271.24217392 -239.40326421 272.45703125 -233.76171875 272.45703125 C-228.03067711 271.22431663 -223.86981772 268.56513022 -219.76171875 264.45703125 C-216.6022749 259.55444597 -214.98209406 254.16024854 -216.19921875 248.37890625 C-218.19404578 242.43976215 -221.24151514 238.08116246 -226.57421875 234.64453125 C-234.86017235 231.55760736 -242.49129839 231.85002044 -249.4375 237.921875 Z M188.92578125 237.76953125 C184.63262438 242.06268812 182.73394415 246.28562792 182.17578125 252.37890625 C182.37207252 258.90559087 185.75786994 263.97661994 190.23828125 268.45703125 C194.56884751 271.24784062 199.06239889 272.74914454 204.23828125 272.45703125 C211.03637499 270.7964282 215.36515229 268.26672469 219.23828125 262.45703125 C222.24547584 257.44860752 221.9286562 252.11810581 221.23828125 246.45703125 C219.25098005 240.80939855 215.51822045 237.23110641 210.34375 234.3671875 C202.50994252 230.98077351 195.53168131 232.72947417 188.92578125 237.76953125 Z M-177.6328125 403.3984375 C-182.12371278 409.24630045 -183.60786445 414.10390594 -182.76171875 421.45703125 C-180.69004228 428.09823412 -176.82705694 432.04003396 -170.90234375 435.5625 C-166.07803087 437.57849936 -160.23317457 437.44889246 -155.40625 435.51171875 C-149.81092233 432.17341819 -145.51083586 427.87046066 -143.76171875 421.45703125 C-142.93537643 414.93393505 -143.94293107 409.85519408 -147.76171875 404.45703125 C-152.06910201 399.68987112 -156.77557055 397.79508576 -163.07421875 397.08203125 C-168.77395366 397.66166531 -173.58204797 399.19545217 -177.6328125 403.3984375 Z M115.3671875 403.3984375 C110.87628722 409.24630045 109.39213555 414.10390594 110.23828125 421.45703125 C112.30995772 428.09823412 116.17294306 432.04003396 122.09765625 435.5625 C126.92196913 437.57849936 132.76682543 437.44889246 137.59375 435.51171875 C143.18907767 432.17341819 147.48916414 427.87046066 149.23828125 421.45703125 C150.06462357 414.93393505 149.05706893 409.85519408 145.23828125 404.45703125 C140.93089799 399.68987112 136.22442945 397.79508576 129.92578125 397.08203125 C124.22604634 397.66166531 119.41795203 399.19545217 115.3671875 403.3984375 Z M-32.76171875 459.45703125 C-35.76888195 464.22701425 -37.43351858 469.02605353 -36.32421875 474.69140625 C-34.4243147 481.12517223 -31.67582173 485.32476078 -26.19921875 489.33203125 C-20.37733211 491.23737597 -14.23460759 491.68879478 -8.3828125 489.61328125 C-2.09973261 486.08426484 1.25668075 480.83128297 3.23828125 474.01953125 C3.23828125 468.05658818 1.57406837 462.84015328 -2.07421875 458.08203125 C-6.39731591 453.85947123 -10.61473432 451.95045731 -16.68359375 451.39453125 C-23.21027837 451.59082252 -28.28130744 454.97661994 -32.76171875 459.45703125 Z " fill="#ffffff" transform="translate(272.76171875,3.54296875)"/>
<path fill="#fffff" d="M0 0 C6.84397189 5.77611812 11.93477788 12.03574408 16 20 C16.58394531 21.12728516 16.58394531 21.12728516 17.1796875 22.27734375 C22.74084061 33.82586974 22.2315576 45.47016103 22 58 C22.60400635 58.17088135 23.2080127 58.3417627 23.83032227 58.51782227 C28.4846762 59.93142931 31.84003707 60.99183206 34.9375 64.9375 C35.48277344 65.60652344 36.02804687 66.27554688 36.58984375 66.96484375 C41.20005153 73.61835692 41.14985807 80.78927271 41.14526367 88.63818359 C41.14862228 89.47330978 41.1519809 90.30843597 41.15544128 91.16886902 C41.16489046 93.91207391 41.16689128 96.65521738 41.16796875 99.3984375 C41.17118526 101.31743392 41.17454963 103.23643011 41.17805481 105.15542603 C41.1840308 109.17165699 41.18589626 113.18786647 41.18530273 117.20410156 C41.18520114 122.33390096 41.19885748 127.46356187 41.21607494 132.59332848 C41.22722789 136.55517196 41.22922094 140.5169823 41.22869301 144.47883987 C41.22986799 146.36934512 41.23426257 148.25985136 41.24202538 150.15034103 C41.25189307 152.80133349 41.24892079 155.45202946 41.24291992 158.10302734 C41.24853943 158.8731868 41.25415894 159.64334625 41.25994873 160.43684387 C41.21429102 168.42968403 40.18442248 175.66348363 35 182 C27.76377388 188.9216076 21.37331499 189.29878778 11.81323242 189.29052734 C10.69539871 189.29724457 9.577565 189.30396179 8.42585754 189.31088257 C4.73568255 189.32985828 1.04568948 189.33378661 -2.64453125 189.3359375 C-5.2151446 189.34236577 -7.78575721 189.34909415 -10.35636902 189.35610962 C-15.74386604 189.36808138 -21.13129115 189.37187633 -26.51879883 189.37060547 C-32.72867332 189.36940497 -38.93819976 189.39049404 -45.14798623 189.4220928 C-51.14090053 189.45149144 -57.13362718 189.45857901 -63.12662315 189.45738602 C-65.66746123 189.45974183 -68.20830204 189.4685642 -70.74909401 189.48405075 C-74.30803687 189.50371179 -77.86609074 189.49787117 -81.42504883 189.48583984 C-82.46795074 189.49707886 -83.51085266 189.50831787 -84.58535767 189.51989746 C-91.84791671 189.45771233 -98.38421119 188.34784995 -103.87983418 183.25946617 C-110.56170651 175.98004132 -111.15084339 168.05181369 -111.14526367 158.4753418 C-111.14862228 157.64036163 -111.1519809 156.80538147 -111.15544128 155.94509888 C-111.16490679 153.19645685 -111.16689222 150.44787604 -111.16796875 147.69921875 C-111.17118453 145.77879308 -111.17454884 143.85836766 -111.17805481 141.9379425 C-111.18403518 137.91573519 -111.18589585 133.89354933 -111.18530273 129.87133789 C-111.18520121 124.73366273 -111.19884862 119.59612607 -111.21607494 114.4584837 C-111.227229 110.492349 -111.22922089 106.52624742 -111.22869301 102.56009865 C-111.22986817 100.66680232 -111.23426377 98.77350501 -111.24202538 96.88022423 C-111.25189363 94.22433325 -111.24892038 91.5687382 -111.24291992 88.9128418 C-111.24853943 88.1411113 -111.25415894 87.3693808 -111.25994873 86.57426453 C-111.2143564 78.57716145 -110.18749723 71.3402744 -105 65 C-100.84343243 60.9358006 -97.56736296 59.44949095 -92 58 C-92.03480469 56.77925781 -92.06960937 55.55851562 -92.10546875 54.30078125 C-92.48077505 35.69658234 -89.4591022 20.08478793 -76.31274414 6.16577148 C-69.21567663 -1.01497376 -61.59854322 -5.90419757 -52 -9 C-51.31808594 -9.22558594 -50.63617188 -9.45117188 -49.93359375 -9.68359375 C-32.98377046 -14.34720737 -14.00388319 -10.27213311 0 0 Z M-64.8125 18.75 C-72.33063253 28.04127699 -75.39075009 38.20478427 -75.125 50 C-75.11597656 50.77472656 -75.10695312 51.54945313 -75.09765625 52.34765625 C-75.07439388 54.23190843 -75.0385364 56.11599832 -75 58 C-72.36 58 -69.72 58 -67 58 C-66.94392578 56.33324219 -66.94392578 56.33324219 -66.88671875 54.6328125 C-66.4015001 42.75097073 -65.81652757 31.91215151 -57 23 C-49.32571546 16.70960283 -42.01896166 14.48945133 -32.12890625 14.6875 C-23.74045309 15.52529807 -16.69858111 18.78620471 -11 25 C-3.21836935 34.51088191 -3.39327137 46.31034747 -3 58 C-0.36 58 2.28 58 5 58 C5.64920854 42.94196865 4.52416836 29.7903898 -6 18 C-15.27458129 9.1832134 -25.21994608 5.63411807 -37.87890625 5.7890625 C-48.16842617 6.48447436 -57.77880949 11.21390302 -64.8125 18.75 Z M-47.3125 37.5625 C-51.97977131 44.30411412 -50 48.22084115 -50 58 C-40.1 58 -30.2 58 -20 58 C-18.96387021 45.21585569 -18.96387021 45.21585569 -24.53515625 35.35546875 C-28.93093789 31.99398867 -31.25753826 30.63688461 -36.90625 30.71875 C-41.51074804 31.33726466 -44.3199105 34.24638731 -47.3125 37.5625 Z M-93 77 C-94.24987306 80.74961917 -94.15557374 84.24938828 -94.16113281 88.15576172 C-94.16609772 88.9869754 -94.17106262 89.81818909 -94.17617798 90.67459106 C-94.19079145 93.42629828 -94.19759999 96.17794785 -94.203125 98.9296875 C-94.2088768 100.84156292 -94.21463453 102.75343833 -94.22039795 104.66531372 C-94.23090539 108.67515329 -94.23674985 112.68497282 -94.24023438 116.69482422 C-94.24572077 121.8319177 -94.269753 126.96874636 -94.29820633 132.10575676 C-94.31683257 136.05543796 -94.32203829 140.00505535 -94.32357025 143.95477676 C-94.32659697 145.84859796 -94.33462615 147.74241803 -94.34775543 149.63619614 C-94.36481681 152.2861521 -94.3629356 154.93546056 -94.35644531 157.58544922 C-94.3656601 158.36692322 -94.37487488 159.14839722 -94.3843689 159.95355225 C-94.3462623 164.92222582 -93.58107899 168.41892101 -90 172 C-88.57752075 172.1020165 -87.1500305 172.13518092 -85.72390747 172.14044189 C-84.80131134 172.14615204 -83.87871521 172.15186218 -82.92816162 172.15774536 C-81.90788879 172.15886322 -80.88761597 172.15998108 -79.83642578 172.16113281 C-78.76820587 172.16609772 -77.69998596 172.17106262 -76.59939575 172.17617798 C-73.04802824 172.1908428 -69.49670538 172.19760868 -65.9453125 172.203125 C-63.48770139 172.20887277 -61.03009031 172.21463054 -58.57247925 172.22039795 C-53.41241241 172.23092016 -48.25236122 172.23675488 -43.09228516 172.24023438 C-36.46851325 172.24572251 -29.84494657 172.26975242 -23.22123909 172.29820633 C-18.1427245 172.31679627 -13.0642597 172.32203636 -7.98571396 172.32357025 C-5.54319003 172.32660541 -3.10066715 172.33466276 -0.65817642 172.34775543 C2.75392175 172.36474013 6.16551386 172.36295412 9.57763672 172.35644531 C11.10197327 172.37026749 11.10197327 172.37026749 12.65710449 172.3843689 C13.58534027 172.37879974 14.51357605 172.37323059 15.46994019 172.36749268 C16.27705381 172.36895924 17.08416744 172.3704258 17.91573906 172.3719368 C20.54164025 171.90334418 21.39067666 171.09381733 23 169 C24.25200302 165.24399094 24.14751642 161.7409431 24.14526367 157.82836914 C24.14862228 156.99554916 24.1519809 156.16272919 24.15544128 155.30467224 C24.16495013 152.54815179 24.16689431 149.79169208 24.16796875 147.03515625 C24.17118117 145.12088496 24.17454523 143.20661391 24.17805481 141.29234314 C24.18404577 137.27830435 24.18589472 133.26428709 24.18530273 129.25024414 C24.18520107 124.10414321 24.19885818 118.9581801 24.21607494 113.81211185 C24.2271871 109.85818343 24.22922219 105.90428843 24.22869301 101.95034599 C24.22987412 100.05291709 24.23430322 98.15548736 24.24202538 96.25807381 C24.25181022 93.60562574 24.24895328 90.95347817 24.24291992 88.30102539 C24.24853943 87.51595612 24.25415894 86.73088684 24.25994873 85.92202759 C24.24055321 80.6433744 24.24055321 80.6433744 22 76 C19.64171205 74.82085602 18.23339633 74.87175884 15.60365295 74.86628723 C14.21769676 74.85988976 14.21769676 74.85988976 12.80374146 74.85336304 C11.7870639 74.85381622 10.77038635 74.85426941 9.72290039 74.85473633 C8.65453445 74.85137772 7.58616852 74.8480191 6.48542786 74.84455872 C2.93949229 74.83502817 -0.60639616 74.83310459 -4.15234375 74.83203125 C-6.6085258 74.82882027 -9.06470765 74.82545633 -11.52088928 74.82194519 C-16.67498213 74.81594875 -21.8290582 74.81410583 -26.9831543 74.81469727 C-33.59900476 74.81479895 -40.21474804 74.80114254 -46.83057308 74.78392506 C-51.90479531 74.77282632 -56.97899144 74.7707774 -62.05322456 74.77130699 C-64.49294975 74.77012382 -66.93267555 74.76568331 -69.37238884 74.75797462 C-72.77950502 74.74821708 -76.18638618 74.75103599 -79.59350586 74.75708008 C-80.60815918 74.75146057 -81.6228125 74.74584106 -82.66821289 74.74005127 C-83.59500351 74.74424576 -84.52179413 74.74844025 -85.47666931 74.75276184 C-86.28248412 74.75221707 -87.08829893 74.75167231 -87.91853237 74.75111103 C-90.30597093 74.87754411 -90.30597093 74.87754411 -93 77 Z "  transform="translate(291,157)"/>
<path fill="#ffffff" d="M0 0 C6.96286835 4.67489207 10.39241408 10.17724225 13 18 C13.73939224 25.96361809 13.10373619 33.00844945 9 40 C8.30261719 40.59296875 7.60523438 41.1859375 6.88671875 41.796875 C4.22065875 44.91003823 4.53636026 47.84706598 4.5625 51.75 C4.36952792 58.29337396 3.79213687 63.24539945 -1 68 C-6.14662007 72.2013225 -10.5464629 72.63796902 -17.12890625 72.375 C-22.78273567 71.63654065 -26.34873587 69.26521639 -29.875 64.75 C-32.59402328 60.1013473 -32.56112994 55.0643227 -32.46044922 49.81152344 C-32.48436237 44.03016691 -34.17473869 41.99887377 -38 38 C-41.75611 31.65346931 -41.78303626 25.24968404 -41 18 C-39.16131431 11.10233166 -35.06693688 4.5830545 -28.9765625 0.71484375 C-19.74673518 -4.07162804 -9.4480843 -4.80064824 0 0 Z M-23 19 C-24.55024464 22.10048928 -24.28992015 24.57894218 -24 28 C-22.30642223 30.56956627 -20.47743261 32.52256739 -18.3125 34.6875 C-15.05126497 37.94873503 -15.65170881 42.29868446 -15.4375 46.625 C-15.39431641 47.42679687 -15.35113281 48.22859375 -15.30664062 49.0546875 C-15.20048543 51.0362511 -15.09973145 53.01810271 -15 55 C-14.34 55 -13.68 55 -13 55 C-12.95101563 53.81921875 -12.90203125 52.6384375 -12.8515625 51.421875 C-12.77651121 49.86456063 -12.70096439 48.30727009 -12.625 46.75 C-12.5940625 45.97269531 -12.563125 45.19539063 -12.53125 44.39453125 C-12.15431361 37.04427158 -10.32800798 34.19139239 -5 29 C-3.54852097 26.09704195 -3.62760975 24.22738221 -4 21 C-5.81310142 18.07062346 -7.87295899 15.56352051 -11 14 C-16.87197071 13.19927672 -18.97206929 15.0657421 -23 19 Z "  transform="translate(270,244)"/>
</svg>
