<?xml version="1.0" encoding="UTF-8"?>
<svg version="1.1" xmlns="http://www.w3.org/2000/svg" width="200" height="200">
<path d="M0 0 C3.29060457 2.50085948 5.58729978 4.73952834 6.34375 8.8828125 C6.59890774 12.54432604 6.69591504 15.02535459 4.5078125 18.08984375 C3.24966597 19.40802632 1.97732008 20.7127968 0.69140625 22.00390625 C-1.94828258 25.11910485 -2.36062031 28.02163747 -3 32 C-2.41734375 32.07476562 -1.8346875 32.14953125 -1.234375 32.2265625 C9.44580905 33.93942221 18.25598326 38.1431743 25.18359375 46.55859375 C26.95692598 48.29825428 26.95692598 48.29825428 29.6171875 47.8203125 C32.71810323 46.75278413 33.44465358 45.88850049 35 43 C35.29014009 41.69163244 35.55923163 40.37850231 35.8125 39.0625 C36.59307408 35.66732005 37.17176765 34.80369411 39.625 32 C44.04065457 29.38331581 45.93540619 29.35687698 51 30 C54.7437925 31.66390778 56.82498424 33.56029812 59 37 C59.8562083 41.74385682 59.68406186 45.78389003 57.3125 50 C54.32031446 52.58783614 52.14571908 54.08286314 48.078125 53.92578125 C45.08485587 53.58256806 42.23241273 53.05945442 39.3125 52.3125 C36.36434772 51.91410104 34.69140636 52.83506292 32 54 C32.22816406 55.01578125 32.45632812 56.0315625 32.69140625 57.078125 C35.15827859 68.64379291 35.31022632 78.52454877 32 90 C35.33189604 92.46537597 35.33189604 92.46537597 39.3125 92.75 C40.199375 92.5025 41.08625 92.255 42 92 C46.25738599 91.08139389 49.14039574 90.69183998 53.3125 92.1875 C56.65952976 94.44479914 58.66814944 96.32415466 59.46875 100.3671875 C59.52428988 104.82426247 59.53016696 108.0126954 56.625 111.5625 C52.72094867 115.18769052 50.40606072 115.28059473 45.2578125 115.22265625 C42.19732089 114.92084306 40.36546795 113.93538287 38 112 C36 109 36 109 35.6875 105.0625 C35.33929758 101.69239797 35.09853563 101.10918814 32.6875 98.4375 C30.21941242 96.80095875 30.21941242 96.80095875 28.05859375 97.17578125 C25.43816688 98.22494647 24.23915873 99.63993097 22.375 101.75 C15.16778441 109.18369002 7.09613138 111.71399087 -3 113 C-2.15505743 119.81151341 -2.15505743 119.81151341 2.0625 124.9375 C3.031875 125.618125 4.00125 126.29875 5 127 C6.73348019 130.46696038 6.47699379 134.20948937 6 138 C3.07317073 143.46341463 3.07317073 143.46341463 0 145 C-4.99015282 145.49017604 -9.47438608 145.71610449 -14.0625 143.5625 C-16.81427599 139.92305434 -17.82341824 136.55273855 -18 132 C-17.45335726 129.06390856 -16.63304405 127.63394201 -15 125 C-14.13375 124.484375 -13.2675 123.96875 -12.375 123.4375 C-9.67779461 122.17837423 -9.67779461 122.17837423 -9.1875 119 C-9.06268253 117.00292042 -9 115.00097632 -9 113 C-10.27875 112.773125 -11.5575 112.54625 -12.875 112.3125 C-22.42570598 110.13033557 -28.93697119 105.62085329 -35.7734375 98.6953125 C-37.80681764 96.75238459 -37.80681764 96.75238459 -40.0390625 97.1796875 C-41.00972656 97.58574219 -41.00972656 97.58574219 -42 98 C-43.33333333 98.33333333 -44.66666667 98.66666667 -46 99 C-46.02126953 99.87011719 -46.02126953 99.87011719 -46.04296875 100.7578125 C-46.41468385 106.84590298 -47.56261546 109.77391948 -52 114 C-55.72900316 115.24300105 -59.13349214 115.6711674 -63 115 C-66.02391552 113.26092412 -68.41748661 111.16502678 -70 108 C-70.51816286 103.20062265 -70.71207367 99.26590874 -68.3125 95 C-65.32031446 92.41216386 -63.14571908 90.91713686 -59.078125 91.07421875 C-56.04331074 91.42219557 -53.24063878 91.92724874 -50.3125 92.8125 C-47.7510855 93.26536775 -47.7510855 93.26536775 -45.1875 91.0625 C-44.465625 90.381875 -43.74375 89.70125 -43 89 C-43.2165625 88.23816406 -43.433125 87.47632812 -43.65625 86.69140625 C-46.83237086 74.9132914 -46.06209483 66.79271045 -43 55 C-46.37767227 52.60092567 -46.37767227 52.60092567 -50.3125 52.25 C-51.199375 52.4975 -52.08625 52.745 -53 53 C-57.25738599 53.91860611 -60.14039574 54.30816002 -64.3125 52.8125 C-67.65952976 50.55520086 -69.66814944 48.67584534 -70.46875 44.6328125 C-70.52428988 40.17573753 -70.53016696 36.9873046 -67.625 33.4375 C-63.98911068 30.06131706 -62.00947685 29.70910178 -57.03125 29.78125 C-53.1805547 30.19594026 -50.90910164 32.09089836 -48.25 34.75 C-47 37 -47 37 -46.625 40.5 C-46.30259695 44.12375147 -46.30259695 44.12375147 -43.6875 46.5 C-41.21242649 48.15207187 -41.21242649 48.15207187 -38.9375 48.0625 C-36.8213939 47.0772579 -36.8213939 47.0772579 -35.375 44.8125 C-29.05154578 37.32419895 -18.55136966 33.19392121 -9 32 C-9 29.03 -9 26.06 -9 23 C-10.32 22.34 -11.64 21.68 -13 21 C-15.55363412 18.730103 -16.83090399 17.02810376 -17.390625 13.625 C-17.57233854 9.2638751 -17.43940501 6.71769485 -15.125 2.9375 C-10.74254283 -1.05826977 -5.68834967 -0.7551633 0 0 Z M-8.75 6.125 C-11.06297121 7.79025087 -11.06297121 7.79025087 -11.9375 9.9375 C-12.02130754 12.70314872 -11.78220984 13.84649645 -10 16 C-6.63825863 17.25411568 -6.63825863 17.25411568 -3 17 C-0.50789479 14.69931981 -0.50789479 14.69931981 1 12 C0.07710056 8.81180193 -0.48262102 7.33559718 -3.3125 5.5 C-6.06516698 4.73691738 -6.06516698 4.73691738 -8.75 6.125 Z M-65 41 C-63.75023244 44.65316671 -63.32901247 45.78065836 -60 48 C-56.67759676 47.6758631 -55.39223697 47.39223697 -53 45 C-52.666272 41.86295684 -52.47150972 39.83445834 -54.1875 37.125 C-59.38503802 33.89894192 -61.95617068 36.49062323 -65 41 Z M42.6875 38.5 C41.8521875 39.7375 41.8521875 39.7375 41 41 C42.24976756 44.65316671 42.67098753 45.78065836 46 48 C48.55460214 48.07272562 48.55460214 48.07272562 51 47 C52.84434349 44.53884453 52.84434349 44.53884453 54 42 C52.24545615 38.81765895 52.24545615 38.81765895 50 36 C46.20303553 35.38427603 45.36604928 35.60427105 42.6875 38.5 Z M0 39 C0.18175781 39.59425781 0.36351563 40.18851563 0.55078125 40.80078125 C2.99071896 48.84631944 5.36527439 56.89991216 7.125 65.125 C7.58374505 68.76174271 7.58374505 68.76174271 9 70 C10.41570123 70.08651611 11.835595 70.10704904 13.25390625 70.09765625 C14.10791016 70.09443359 14.96191406 70.09121094 15.84179688 70.08789062 C17.18854492 70.07532227 17.18854492 70.07532227 18.5625 70.0625 C19.91504883 70.05573242 19.91504883 70.05573242 21.29492188 70.04882812 C23.53001314 70.03700225 25.76497437 70.0205222 28 70 C26.8822444 58.89303905 22.6766542 51.18353971 14 44 C9.54022239 40.70530348 5.45305956 39.44514772 0 39 Z M-31 49 C-33.24904333 51.86740558 -35.19406684 54.83674129 -37 58 C-37.38414063 58.60585937 -37.76828125 59.21171875 -38.1640625 59.8359375 C-39.42038813 62.70164372 -39.42038813 62.70164372 -39 69 C-32.73 69 -26.46 69 -20 69 C-14.53481013 54.26890007 -14.53481013 54.26890007 -12 39 C-18.76138849 39 -26.299517 44.49743208 -31 49 Z M-6 43 C-9.7185763 51.67194702 -11.86694214 59.62652135 -13 69 C-8.05 69 -3.1 69 2 69 C0.75326506 59.70615769 -1.62867233 51.6985401 -5 43 C-5.33 43 -5.66 43 -6 43 Z M-39 76 C-39.33710875 83.51426269 -36.67288483 88.74273921 -31.9453125 94.50390625 C-27.41306636 99.26354883 -23.17916565 102.69590433 -17 105 C-14.8230106 104.64808493 -14.8230106 104.64808493 -13 104 C-13.26554687 103.30777344 -13.53109375 102.61554688 -13.8046875 101.90234375 C-16.45541585 94.55963273 -17.76944382 87.66877526 -18.60546875 79.95703125 C-18.67959393 77.11794561 -18.67959393 77.11794561 -20 76 C-21.41570123 75.91348389 -22.835595 75.89295096 -24.25390625 75.90234375 C-25.53491211 75.90717773 -25.53491211 75.90717773 -26.84179688 75.91210938 C-27.73962891 75.92048828 -28.63746094 75.92886719 -29.5625 75.9375 C-30.46419922 75.94201172 -31.36589844 75.94652344 -32.29492188 75.95117188 C-34.53001314 75.96299775 -36.76497437 75.9794778 -39 76 Z M-13 76 C-13.56324423 86.70164032 -11.19966087 95.64061043 -6 105 C-3.53765015 102.01000375 -2.1594825 99.20860977 -0.875 95.5625 C-0.54242188 94.63566406 -0.20984375 93.70882812 0.1328125 92.75390625 C1.47415926 88.49422396 2.12914006 84.65238384 2.0625 80.1875 C2.041875 78.805625 2.02125 77.42375 2 76 C-2.95 76 -7.9 76 -13 76 Z M8 76 C7.7525 78.2275 7.505 80.455 7.25 82.75 C6.48128151 89.03706834 5.00875221 94.7464037 2.8046875 100.70703125 C1.88962069 102.90951622 1.88962069 102.90951622 2 105 C10.32150535 104.65327061 15.22266079 100.09277693 20.75 94.1875 C25.45762832 88.56420026 28 83.36368539 28 76 C21.4 76 14.8 76 8 76 Z M-64 100 C-65.16666667 101.83333333 -65.16666667 101.83333333 -65 104 C-63.48408701 106.85329312 -63.48408701 106.85329312 -61 109 C-58.06402619 109.57287294 -56.72646491 109.45090926 -54.1875 107.875 C-52.42997586 105.09996189 -52.53177254 103.21070255 -53 100 C-54.7109211 98.02901574 -54.7109211 98.02901574 -57 97 C-60.5595477 97 -61.44549506 97.61579539 -64 100 Z M42 100 C40.83333333 101.83333333 40.83333333 101.83333333 41 104 C42.51591299 106.85329312 42.51591299 106.85329312 45 109 C47.5 109.83333333 47.5 109.83333333 50 109 C52.33630748 106.60140956 52.33630748 106.60140956 54 104 C52.75023244 100.34683329 52.32901247 99.21934164 49 97 C45.4404523 97 44.55450494 97.61579539 42 100 Z M-12 133 C-11.07710056 136.18819807 -10.51737898 137.66440282 -7.6875 139.5 C-4.93483302 140.26308262 -4.93483302 140.26308262 -2.25 138.875 C0.03527506 137.19474773 0.03527506 137.19474773 1.0625 135.125 C0.96227718 131.71742413 -0.58869035 130.28439862 -3 128 C-7.89245526 126.77688619 -9.37585268 129.11237434 -12 133 Z " fill="#ffffff" transform="translate(106,27)"/>
</svg>
